<svg xmlns="http://www.w3.org/2000/svg" xmlns:xlink="http://www.w3.org/1999/xlink" width="500" zoomAndPan="magnify" viewBox="0 0 375 374.999991" height="500" preserveAspectRatio="xMidYMid meet" version="1.0"><defs><clipPath id="37bfe46583"><path d="M 7.007812 137 L 216 137 L 216 367.59375 L 7.007812 367.59375 Z M 7.007812 137 " clip-rule="nonzero"/></clipPath><clipPath id="4027766c20"><path d="M 7.007812 140 L 189 140 L 189 367.59375 L 7.007812 367.59375 Z M 7.007812 140 " clip-rule="nonzero"/></clipPath><clipPath id="9155aa2846"><path d="M 29 179 L 189 179 L 189 367.59375 L 29 367.59375 Z M 29 179 " clip-rule="nonzero"/></clipPath><clipPath id="11acb7ee00"><path d="M 88 137 L 216 137 L 216 367.59375 L 88 367.59375 Z M 88 137 " clip-rule="nonzero"/></clipPath><clipPath id="1fd72f1192"><path d="M 25 5.347656 L 178 5.347656 L 178 159 L 25 159 Z M 25 5.347656 " clip-rule="nonzero"/></clipPath><clipPath id="44493cfac6"><path d="M 39 5.347656 L 178 5.347656 L 178 159 L 39 159 Z M 39 5.347656 " clip-rule="nonzero"/></clipPath></defs><g clip-path="url(#37bfe46583)"><path fill="#e71f2f" d="M 93.113281 312.957031 C 93.113281 312.957031 101.039062 302.941406 38.769531 305.226562 C 38.769531 305.226562 62.96875 297.34375 34.277344 268.988281 L 7.046875 236.070312 C 7.046875 236.070312 36.039062 244.808594 14.207031 197.46875 C 14.207031 197.46875 52.914062 219.222656 57.589844 190.75 C 57.589844 190.75 96.574219 281.230469 79.738281 166.148438 C 79.738281 166.148438 103.761719 195.140625 128.773438 137.492188 C 128.773438 137.492188 130.25 204.925781 164.226562 181.339844 C 164.453125 181.179688 164.6875 181.019531 164.917969 180.851562 C 164.917969 180.851562 105.453125 280.773438 175.316406 213.046875 C 175.316406 213.046875 164.496094 245.214844 215.117188 233.796875 C 215.117188 233.796875 173.90625 269.664062 207.683594 273.855469 C 207.683594 273.855469 124.691406 306.152344 151.277344 326.25 C 151.277344 326.25 103.761719 301.335938 97.988281 314.476562 L 90.859375 367.601562 L 82.066406 365.957031 L 93.113281 312.957031 " fill-opacity="1" fill-rule="nonzero"/></g><g clip-path="url(#4027766c20)"><path fill="#e71f2f" d="M 96.011719 311.386719 C 101.609375 294.28125 124.183594 303.339844 136.207031 310.425781 C 140.546875 287.035156 163.292969 275.550781 184.515625 272.257812 C 176.226562 264.65625 181.695312 254.789062 188.855469 248.863281 C 180.222656 249.667969 167.328125 247.261719 166.71875 237.46875 C 156.777344 245.292969 139.160156 255.3125 128.65625 240.039062 C 127.917969 237.476562 127.398438 233.75 126.65625 231.191406 C 128.828125 219.496094 131.214844 206.628906 140.203125 197.417969 C 117.660156 186.824219 125.046875 161.261719 127.4375 140.488281 C 102.914062 194.109375 79.738281 166.148438 79.738281 166.148438 C 96.574219 281.230469 57.589844 190.75 57.589844 190.75 C 52.914062 219.222656 14.207031 197.46875 14.207031 197.46875 C 36.039062 244.808594 7.046875 236.070312 7.046875 236.070312 L 34.277344 268.988281 C 62.96875 297.34375 38.769531 305.226562 38.769531 305.226562 C 101.039062 302.941406 93.113281 312.957031 93.113281 312.957031 L 82.066406 365.957031 L 88.953125 367.242188 C 90.863281 348.542969 90.421875 329.402344 96.011719 311.386719 " fill-opacity="1" fill-rule="nonzero"/></g><g clip-path="url(#9155aa2846)"><path fill="#be1523" d="M 188.855469 248.863281 C 180.222656 249.667969 167.328125 247.261719 166.71875 237.46875 C 156.777344 245.292969 139.160156 255.3125 128.65625 240.039062 C 127.917969 237.476562 127.398438 233.75 126.65625 231.191406 C 128.828125 219.496094 131.214844 206.628906 140.203125 197.417969 C 131.636719 193.390625 127.394531 187.203125 125.558594 179.941406 C 122.46875 188.039062 117.730469 195.109375 108.328125 197.109375 C 116.269531 213.117188 112.363281 234.167969 101.339844 247.84375 C 89.140625 261.292969 65.921875 255.746094 50.59375 246.832031 C 47.273438 256.34375 39.042969 262.417969 29.773438 263.539062 L 34.277344 268.988281 C 62.96875 297.34375 38.769531 305.226562 38.769531 305.226562 C 101.039062 302.941406 93.113281 312.957031 93.113281 312.957031 L 82.066406 365.957031 L 88.953125 367.242188 C 90.863281 348.542969 90.421875 329.402344 96.011719 311.386719 C 101.609375 294.28125 124.183594 303.339844 136.207031 310.425781 C 140.546875 287.035156 163.292969 275.550781 184.515625 272.257812 C 176.226562 264.65625 181.695312 254.789062 188.855469 248.863281 " fill-opacity="1" fill-rule="nonzero"/></g><path fill="#ee2147" d="M 122.414062 163.066406 C 101.691406 198.011719 85.550781 177.824219 85.550781 177.824219 C 102.140625 287.933594 58.1875 202.667969 58.1875 202.667969 C 53.722656 229.886719 21.722656 206.542969 21.722656 206.542969 C 38.21875 241.71875 22.402344 243.199219 15.648438 242.691406 C 17.128906 244.304688 18.277344 246.25 19.632812 247.945312 C 31.035156 246.902344 41.71875 244.394531 41.921875 231.660156 C 56.480469 235.535156 68.960938 250.597656 85.390625 244.410156 C 105.433594 237.742188 103.386719 210.75 95.863281 194.308594 C 116.910156 193.660156 124.421875 159.675781 122.414062 163.066406 " fill-opacity="1" fill-rule="nonzero"/><g clip-path="url(#11acb7ee00)"><path fill="#a5171d" d="M 215.117188 233.796875 C 164.496094 245.214844 175.316406 213.046875 175.316406 213.046875 C 105.453125 280.773438 164.917969 180.851562 164.917969 180.851562 C 164.6875 181.019531 164.453125 181.179688 164.226562 181.339844 C 130.25 204.925781 128.773438 137.492188 128.773438 137.492188 C 128.328125 138.519531 127.882812 139.515625 127.4375 140.488281 C 125.046875 161.261719 117.660156 186.824219 140.203125 197.417969 C 131.214844 206.628906 128.828125 219.496094 126.65625 231.191406 C 127.398438 233.75 127.917969 237.476562 128.65625 240.039062 C 139.160156 255.3125 156.777344 245.292969 166.71875 237.46875 C 167.328125 247.261719 180.222656 249.667969 188.855469 248.863281 C 181.695312 254.789062 176.226562 264.65625 184.515625 272.257812 C 163.292969 275.550781 140.546875 287.035156 136.207031 310.425781 C 124.183594 303.339844 101.609375 294.28125 96.011719 311.386719 C 90.421875 329.402344 90.863281 348.542969 88.953125 367.242188 L 90.859375 367.601562 L 97.988281 314.476562 C 103.761719 301.335938 151.277344 326.25 151.277344 326.25 C 124.691406 306.152344 207.683594 273.855469 207.683594 273.855469 C 173.90625 269.664062 215.117188 233.796875 215.117188 233.796875 " fill-opacity="1" fill-rule="nonzero"/></g><g clip-path="url(#1fd72f1192)"><path fill="#e71f2f" d="M 61.714844 119.800781 C 61.714844 119.800781 70.925781 115.320312 25.109375 95.277344 C 25.109375 95.277344 45.351562 98.011719 34.476562 67.507812 L 26.242188 34.21875 C 26.242188 34.21875 44.160156 50.640625 44.855469 8.800781 C 44.855469 8.800781 65.269531 38.019531 78.5625 19.058594 C 78.5625 19.058594 75.257812 98.066406 103.140625 8.984375 C 103.140625 8.984375 110.417969 38.316406 148.570312 5.34375 C 148.570312 5.34375 126.167969 54.621094 158.945312 49.40625 C 159.164062 49.367188 159.390625 49.328125 159.617188 49.289062 C 159.617188 49.289062 81.839844 100.828125 155.929688 76.191406 C 155.929688 76.191406 136.90625 95.683594 177.484375 105.0625 C 177.484375 105.0625 135.203125 116.636719 158.167969 131.4375 C 158.167969 131.4375 86.914062 125.878906 99.148438 149.671875 C 99.148438 149.671875 73.460938 115.105469 64.707031 122.597656 L 41.0625 158.523438 L 35.277344 154.273438 L 61.714844 119.800781 " fill-opacity="1" fill-rule="nonzero"/></g><path fill="#e71f2f" d="M 64.355469 119.671875 C 74.355469 109.257812 87.527344 123.667969 93.753906 132.980469 C 105.035156 117.582031 125.476562 117.199219 141.96875 122.210938 C 138.621094 113.828125 146.015625 108.597656 153.25 106.808594 C 146.726562 104.386719 138.242188 98.148438 141.210938 90.855469 C 131.300781 93.046875 115.074219 94.15625 112.792969 79.453125 C 113.148438 77.347656 114.070312 74.464844 114.425781 72.363281 C 120.070312 64.660156 126.273438 56.1875 135.976562 52.65625 C 123.363281 37.148438 137.601562 21.238281 146.5625 7.046875 C 110.167969 37.277344 103.140625 8.984375 103.140625 8.984375 C 75.257812 98.066406 78.5625 19.058594 78.5625 19.058594 C 65.269531 38.019531 44.855469 8.800781 44.855469 8.800781 C 44.160156 50.636719 26.242188 34.21875 26.242188 34.21875 L 34.476562 67.507812 C 45.351562 98.011719 25.109375 95.277344 25.109375 95.277344 C 70.929688 115.320312 61.714844 119.800781 61.714844 119.800781 L 35.277344 154.273438 L 39.8125 157.605469 C 47.699219 144.746094 54.042969 130.75 64.355469 119.671875 " fill-opacity="1" fill-rule="nonzero"/><path fill="#be1523" d="M 153.25 106.804688 C 146.726562 104.382812 138.242188 98.148438 141.210938 90.855469 C 131.300781 93.046875 115.074219 94.15625 112.792969 79.453125 C 113.148438 77.34375 114.070312 74.46875 114.425781 72.359375 C 120.070312 64.660156 126.273438 56.1875 135.976562 52.65625 C 131.183594 46.761719 130.273438 40.8125 131.472656 34.921875 C 126.417969 39.699219 120.53125 43.160156 113.035156 41.332031 C 113.207031 55.671875 103.054688 69.53125 90.324219 75.578125 C 76.820312 81.054688 61.964844 68.957031 53.984375 57.171875 C 48.269531 62.890625 40.203125 64.417969 33.113281 62 L 34.476562 67.507812 C 45.351562 98.007812 25.109375 95.277344 25.109375 95.277344 C 70.929688 115.320312 61.714844 119.800781 61.714844 119.800781 L 35.277344 154.273438 L 39.8125 157.605469 C 47.699219 144.746094 54.042969 130.75 64.355469 119.671875 C 74.355469 109.253906 87.527344 123.667969 93.753906 132.980469 C 105.035156 117.582031 125.476562 117.199219 141.96875 122.210938 C 138.621094 113.824219 146.015625 108.597656 153.25 106.804688 " fill-opacity="1" fill-rule="nonzero"/><path fill="#ee2147" d="M 135.070312 21.621094 C 107.921875 39.671875 103.28125 19.449219 103.28125 19.449219 C 76.949219 104.847656 74.84375 27.882812 74.84375 27.882812 C 62.144531 46.011719 47.128906 17.980469 47.128906 17.980469 C 46.8125 49.164062 34.863281 44.722656 30.15625 42.003906 C 30.664062 43.6875 30.816406 45.492188 31.207031 47.191406 C 39.8125 50.410156 48.414062 52.320312 52.992188 43.179688 C 62.171875 51.054688 65.953125 66.292969 79.988281 67.539062 C 96.800781 69.703125 104.714844 49.472656 104.996094 34.960938 C 120.441406 41.824219 137.703125 19.871094 135.070312 21.621094 " fill-opacity="1" fill-rule="nonzero"/><g clip-path="url(#44493cfac6)"><path fill="#a5171d" d="M 177.484375 105.0625 C 136.90625 95.683594 155.929688 76.191406 155.929688 76.191406 C 81.839844 100.828125 159.617188 49.289062 159.617188 49.289062 C 159.390625 49.328125 159.164062 49.367188 158.945312 49.40625 C 126.167969 54.621094 148.570312 5.34375 148.570312 5.34375 C 147.890625 5.933594 147.222656 6.5 146.5625 7.046875 C 137.601562 21.242188 123.363281 37.148438 135.976562 52.660156 C 126.273438 56.1875 120.070312 64.660156 114.425781 72.363281 C 114.070312 74.46875 113.148438 77.347656 112.792969 79.453125 C 115.074219 94.15625 131.300781 93.046875 141.210938 90.855469 C 138.242188 98.148438 146.726562 104.386719 153.25 106.808594 C 146.011719 108.597656 138.621094 113.828125 141.96875 122.214844 C 125.476562 117.203125 105.035156 117.582031 93.753906 132.984375 C 87.527344 123.671875 74.355469 109.257812 64.355469 119.671875 C 54.042969 130.753906 47.699219 144.746094 39.8125 157.605469 L 41.0625 158.523438 L 64.707031 122.597656 C 73.460938 115.105469 99.148438 149.671875 99.148438 149.671875 C 86.914062 125.878906 158.167969 131.4375 158.167969 131.4375 C 135.203125 116.636719 177.484375 105.0625 177.484375 105.0625 " fill-opacity="1" fill-rule="nonzero"/></g><path fill="#e71f2f" d="M 222.179688 212.472656 C 222.179688 212.472656 228.007812 206.890625 188.835938 202.921875 C 188.835938 202.921875 204.664062 200.085938 189.164062 179.851562 L 174.96875 156.886719 C 174.96875 156.886719 192.355469 164.871094 182.792969 133.347656 C 182.792969 133.347656 205.136719 150.320312 210.535156 132.902344 C 210.535156 132.902344 227.089844 192.914062 226.523438 119.425781 C 226.523438 119.425781 239.046875 139.652344 259.699219 105.738281 C 259.699219 105.738281 254.78125 148.074219 278.089844 136.257812 C 278.246094 136.179688 278.40625 136.097656 278.566406 136.011719 C 278.566406 136.011719 232.691406 193.398438 282.285156 157.066406 C 282.285156 157.066406 272.722656 176.261719 305.398438 173.503906 C 305.398438 173.503906 276.496094 192.378906 297.277344 197.929688 C 297.277344 197.929688 242.53125 210.949219 257.429688 225.835938 C 257.429688 225.835938 229.847656 206.121094 225.097656 213.84375 L 216.035156 246.480469 L 210.671875 244.6875 L 222.179688 212.472656 " fill-opacity="1" fill-rule="nonzero"/><path fill="#e71f2f" d="M 224.125 211.742188 C 229.113281 201.523438 242.457031 209.148438 249.367188 214.625 C 254.113281 200.359375 269.34375 195.148438 282.910156 194.921875 C 278.378906 189.449219 282.664062 183.746094 287.652344 180.65625 C 282.179688 180.414062 274.320312 177.789062 274.785156 171.605469 C 267.886719 175.640625 255.992188 180.386719 250.742188 169.914062 C 250.5 168.246094 250.496094 165.871094 250.253906 164.203125 C 252.628906 157.074219 255.234375 149.226562 261.660156 144.242188 C 248.464844 135.652344 255.304688 120.296875 258.601562 107.5 C 238.605469 138.9375 226.523438 119.425781 226.523438 119.425781 C 227.089844 192.914062 210.53125 132.902344 210.53125 132.902344 C 205.132812 150.320312 182.792969 133.347656 182.792969 133.347656 C 192.355469 164.875 174.96875 156.886719 174.96875 156.886719 L 189.164062 179.851562 C 204.664062 200.085938 188.835938 202.921875 188.835938 202.921875 C 228.003906 206.894531 222.179688 212.472656 222.179688 212.472656 L 210.671875 244.6875 L 214.871094 246.089844 C 217.6875 234.550781 219.066406 222.53125 224.125 211.742188 " fill-opacity="1" fill-rule="nonzero"/><path fill="#be1523" d="M 287.652344 180.65625 C 282.179688 180.414062 274.320312 177.789062 274.785156 171.605469 C 267.886719 175.640625 255.992188 180.386719 250.742188 169.914062 C 250.5 168.246094 250.496094 165.871094 250.253906 164.203125 C 252.628906 157.074219 255.234375 149.226562 261.660156 144.242188 C 256.648438 140.976562 254.527344 136.738281 254.007812 132.03125 C 251.371094 136.835938 247.792969 140.847656 241.734375 141.28125 C 245.316406 151.992188 241.050781 164.828125 232.964844 172.433594 C 224.164062 179.792969 210.113281 174.308594 201.296875 167.398438 C 198.390625 173.0625 192.710938 176.152344 186.8125 176.050781 L 189.164062 179.851562 C 204.664062 200.085938 188.835938 202.921875 188.835938 202.921875 C 228.003906 206.894531 222.179688 212.472656 222.179688 212.472656 L 210.671875 244.6875 L 214.871094 246.089844 C 217.6875 234.550781 219.066406 222.53125 224.125 211.742188 C 229.113281 201.523438 242.457031 209.148438 249.367188 214.625 C 254.113281 200.359375 269.34375 195.148438 282.910156 194.921875 C 278.378906 189.449219 282.664062 183.746094 287.652344 180.65625 " fill-opacity="1" fill-rule="nonzero"/><path fill="#ee2147" d="M 253.5 121.195312 C 237.503906 141.273438 229.152344 127.238281 229.152344 127.238281 C 229.996094 197.59375 209.867188 140.414062 209.867188 140.414062 C 204.71875 157.0625 186.710938 139.675781 186.710938 139.675781 C 193.992188 163.125 183.960938 162.683594 179.777344 161.777344 C 180.566406 162.917969 181.113281 164.234375 181.816406 165.414062 C 189.042969 165.746094 195.949219 165.105469 197.179688 157.148438 C 205.953125 160.839844 212.460938 171.347656 223.28125 168.894531 C 236.402344 166.464844 237.460938 149.394531 234.175781 138.449219 C 247.40625 139.867188 255.050781 119.25 253.5 121.195312 " fill-opacity="1" fill-rule="nonzero"/><path fill="#a5171d" d="M 305.398438 173.503906 C 272.722656 176.261719 282.285156 157.066406 282.285156 157.066406 C 232.691406 193.398438 278.566406 136.011719 278.566406 136.011719 C 278.40625 136.097656 278.246094 136.179688 278.089844 136.257812 C 254.78125 148.074219 259.699219 105.738281 259.699219 105.738281 C 259.328125 106.34375 258.964844 106.929688 258.601562 107.5 C 255.304688 120.296875 248.464844 135.65625 261.660156 144.238281 C 255.238281 149.226562 252.628906 157.074219 250.253906 164.203125 C 250.496094 165.871094 250.5 168.246094 250.742188 169.914062 C 255.992188 180.386719 267.886719 175.640625 274.785156 171.605469 C 274.320312 177.789062 282.179688 180.414062 287.652344 180.65625 C 282.664062 183.746094 278.378906 189.449219 282.910156 194.921875 C 269.34375 195.144531 254.113281 200.359375 249.371094 214.625 C 242.457031 209.148438 229.113281 201.523438 224.128906 211.742188 C 219.066406 222.53125 217.6875 234.550781 214.875 246.089844 L 216.035156 246.480469 L 225.097656 213.84375 C 229.847656 206.121094 257.429688 225.835938 257.429688 225.835938 C 242.53125 210.949219 297.277344 197.929688 297.277344 197.929688 C 276.496094 192.378906 305.398438 173.503906 305.398438 173.503906 " fill-opacity="1" fill-rule="nonzero"/><path fill="#e71f2f" d="M 214.804688 90.136719 C 214.804688 90.136719 218.78125 85.511719 189.003906 85.390625 C 189.003906 85.390625 200.710938 82.097656 187.5625 68 L 175.195312 51.753906 C 175.195312 51.753906 188.871094 56.488281 179.363281 33.460938 C 179.363281 33.460938 197.425781 44.601562 200.210938 31.09375 C 200.210938 31.09375 217.070312 75.054688 211.261719 19.777344 C 211.261719 19.777344 222.167969 34.085938 235.230469 7.046875 C 235.230469 7.046875 234.632812 39.273438 251.308594 28.671875 C 251.421875 28.601562 251.535156 28.527344 251.652344 28.449219 C 251.652344 28.449219 221.320312 75.011719 255.992188 44.023438 C 255.992188 44.023438 250.203125 59.175781 274.589844 54.703125 C 274.589844 54.703125 254.21875 71.03125 270.269531 73.6875 C 270.269531 73.6875 230.011719 87.503906 242.320312 97.613281 C 242.320312 97.613281 220.113281 84.792969 217.101562 90.960938 L 212.667969 116.1875 L 208.5 115.230469 L 214.804688 90.136719 " fill-opacity="1" fill-rule="nonzero"/><path fill="#e71f2f" d="M 216.21875 89.441406 C 219.222656 81.386719 229.824219 86.144531 235.429688 89.765625 C 237.957031 78.675781 249.039062 73.636719 259.234375 72.472656 C 255.425781 68.6875 258.230469 64.082031 261.761719 61.390625 C 257.625 61.609375 251.511719 60.207031 251.414062 55.519531 C 246.515625 59.058594 237.910156 63.503906 233.1875 56.007812 C 232.886719 54.769531 232.707031 52.980469 232.40625 51.742188 C 233.671875 46.203125 235.058594 40.105469 239.527344 35.878906 C 228.96875 30.382812 232.992188 18.324219 234.539062 8.449219 C 221.785156 33.578125 211.265625 19.777344 211.265625 19.777344 C 217.070312 75.054688 200.210938 31.09375 200.210938 31.09375 C 197.425781 44.597656 179.363281 33.460938 179.363281 33.460938 C 188.871094 56.488281 175.195312 51.75 175.195312 51.75 L 187.5625 68 C 200.710938 82.097656 189.003906 85.390625 189.003906 85.390625 C 218.78125 85.507812 214.804688 90.132812 214.804688 90.132812 L 208.503906 115.226562 L 211.765625 115.976562 C 213.035156 107.082031 213.199219 97.933594 216.21875 89.441406 " fill-opacity="1" fill-rule="nonzero"/><path fill="#be1523" d="M 261.761719 61.390625 C 257.625 61.609375 251.511719 60.207031 251.414062 55.519531 C 246.515625 59.0625 237.910156 63.503906 233.1875 56.007812 C 232.886719 54.769531 232.710938 52.980469 232.402344 51.746094 C 233.671875 46.203125 235.058594 40.105469 239.527344 35.878906 C 235.515625 33.792969 233.613281 30.753906 232.871094 27.253906 C 231.242188 31.058594 228.839844 34.34375 224.316406 35.113281 C 227.796875 42.914062 225.523438 52.890625 219.992188 59.203125 C 213.910156 65.390625 202.929688 62.289062 195.785156 57.734375 C 194.011719 62.214844 189.964844 64.957031 185.515625 65.3125 L 187.5625 68 C 200.710938 82.097656 189.003906 85.390625 189.003906 85.390625 C 218.78125 85.507812 214.804688 90.136719 214.804688 90.136719 L 208.5 115.226562 L 211.765625 115.976562 C 213.035156 107.082031 213.199219 97.933594 216.21875 89.441406 C 219.21875 81.386719 229.824219 86.144531 235.429688 89.765625 C 237.957031 78.679688 249.039062 73.636719 259.234375 72.472656 C 255.425781 68.6875 258.230469 64.078125 261.761719 61.390625 " fill-opacity="1" fill-rule="nonzero"/><path fill="#ee2147" d="M 231.699219 19.128906 C 221.128906 35.417969 213.8125 25.460938 213.8125 25.460938 C 219.597656 78.359375 200.265625 36.796875 200.265625 36.796875 C 197.605469 49.707031 182.773438 37.9375 182.773438 37.9375 C 189.972656 55.054688 182.394531 55.457031 179.175781 55.078125 C 179.851562 55.882812 180.359375 56.832031 180.976562 57.667969 C 186.441406 57.390625 191.589844 56.402344 191.9375 50.324219 C 198.808594 52.453125 204.480469 59.886719 212.445312 57.25 C 222.144531 54.460938 221.691406 41.535156 218.414062 33.535156 C 228.480469 33.636719 232.726562 17.550781 231.699219 19.128906 " fill-opacity="1" fill-rule="nonzero"/><path fill="#a5171d" d="M 274.589844 54.703125 C 250.203125 59.175781 255.992188 44.023438 255.992188 44.023438 C 221.320312 75.011719 251.652344 28.449219 251.652344 28.449219 C 251.535156 28.527344 251.421875 28.601562 251.308594 28.671875 C 234.632812 39.273438 235.230469 7.046875 235.230469 7.046875 C 234.996094 7.527344 234.769531 7.996094 234.535156 8.449219 C 232.992188 18.324219 228.96875 30.386719 239.527344 35.882812 C 235.054688 40.105469 233.667969 46.203125 232.402344 51.746094 C 232.707031 52.980469 232.886719 54.773438 233.1875 56.007812 C 237.90625 63.503906 246.515625 59.0625 251.414062 55.519531 C 251.511719 60.207031 257.625 61.609375 261.761719 61.390625 C 258.226562 64.082031 255.425781 68.6875 259.234375 72.476562 C 249.039062 73.636719 237.957031 78.679688 235.429688 89.769531 C 229.824219 86.148438 219.21875 81.386719 216.21875 89.445312 C 213.199219 97.933594 213.035156 107.082031 211.765625 115.976562 L 212.667969 116.1875 L 217.101562 90.960938 C 220.113281 84.792969 242.320312 97.613281 242.320312 97.613281 C 230.011719 87.503906 270.269531 73.6875 270.269531 73.6875 C 254.21875 71.03125 274.589844 54.703125 274.589844 54.703125 " fill-opacity="1" fill-rule="nonzero"/><path fill="#e71f2f" d="M 322.667969 132.910156 C 322.667969 132.910156 324.960938 127.257812 296.707031 136.664062 C 296.707031 136.664062 306.75 129.800781 289.785156 120.648438 L 272.875 109.207031 C 272.875 109.207031 287.347656 109.324219 270.980469 90.542969 C 270.980469 90.542969 291.652344 95.320312 289.980469 81.632812 C 289.980469 81.632812 320 117.898438 296.839844 67.375 C 296.839844 67.375 311.742188 77.445312 315.480469 47.644531 C 315.480469 47.644531 325.207031 78.375 337.625 62.996094 C 337.707031 62.890625 337.792969 62.785156 337.875 62.679688 C 337.875 62.679688 324.011719 116.492188 346.964844 76.050781 C 346.964844 76.050781 346.320312 92.257812 368.003906 80.21875 C 368.003906 80.21875 353.914062 102.203125 369.96875 99.59375 C 369.96875 99.59375 336.238281 125.550781 351.128906 131.195312 C 351.128906 131.195312 325.996094 126.152344 325.109375 132.953125 L 328.96875 158.277344 L 324.714844 158.703125 L 322.667969 132.910156 " fill-opacity="1" fill-rule="nonzero"/><path fill="#e71f2f" d="M 323.789062 131.804688 C 324.058594 123.207031 335.625 124.332031 342.09375 125.964844 C 340.949219 114.652344 349.835938 106.332031 359.125 101.96875 C 354.304688 99.597656 355.492188 94.335938 357.976562 90.65625 C 354.128906 92.1875 347.890625 92.816406 346.300781 88.402344 C 342.789062 93.324219 336.050781 100.289062 329.183594 94.695312 C 328.503906 93.621094 327.765625 91.980469 327.082031 90.90625 C 326.511719 85.25 325.875 79.027344 328.761719 73.597656 C 317.003906 71.765625 316.960938 59.050781 315.269531 49.199219 C 311.214844 77.089844 296.835938 67.375 296.835938 67.375 C 319.996094 117.898438 289.976562 81.632812 289.976562 81.632812 C 291.652344 95.320312 270.980469 90.542969 270.980469 90.542969 C 287.34375 109.324219 272.875 109.207031 272.875 109.207031 L 289.785156 120.648438 C 306.75 129.800781 296.707031 136.664062 296.707031 136.664062 C 324.960938 127.257812 322.667969 132.914062 322.667969 132.914062 L 324.714844 158.703125 L 328.046875 158.367188 C 326.410156 149.535156 323.640625 140.816406 323.789062 131.804688 " fill-opacity="1" fill-rule="nonzero"/><path fill="#be1523" d="M 357.976562 90.65625 C 354.128906 92.1875 347.890625 92.816406 346.300781 88.402344 C 342.789062 93.324219 336.050781 100.289062 329.183594 94.695312 C 328.503906 93.621094 327.765625 91.980469 327.082031 90.90625 C 326.511719 85.25 325.875 79.027344 328.761719 73.597656 C 324.292969 72.902344 321.519531 70.632812 319.699219 67.550781 C 319.371094 71.679688 318.144531 75.558594 314.101562 77.738281 C 319.890625 84.011719 320.925781 94.191406 317.703125 101.941406 C 313.914062 109.753906 302.519531 110.328125 294.296875 108.292969 C 294.046875 113.105469 291.089844 116.996094 286.988281 118.753906 L 289.785156 120.648438 C 306.75 129.800781 296.707031 136.664062 296.707031 136.664062 C 324.960938 127.257812 322.667969 132.914062 322.667969 132.914062 L 324.714844 158.703125 L 328.046875 158.367188 C 326.410156 149.535156 323.640625 140.816406 323.789062 131.804688 C 324.058594 123.207031 335.625 124.332031 342.09375 125.964844 C 340.949219 114.652344 349.835938 106.332031 359.125 101.96875 C 354.304688 99.597656 355.492188 94.335938 357.976562 90.65625 " fill-opacity="1" fill-rule="nonzero"/><path fill="#ee2147" d="M 315.996094 60.230469 C 311.179688 79.039062 301.070312 71.949219 301.070312 71.949219 C 323.453125 120.222656 291.851562 87.019531 291.851562 87.019531 C 293.457031 100.101562 275.644531 93.691406 275.644531 93.691406 C 287.933594 107.609375 280.878906 110.414062 277.710938 111.089844 C 278.609375 111.628906 279.394531 112.371094 280.246094 112.964844 C 285.335938 110.953125 289.898438 108.367188 288.28125 102.5 C 295.476562 102.324219 303.222656 107.550781 309.929688 102.507812 C 318.226562 96.757812 313.667969 84.65625 308.011719 78.125 C 317.578125 75 316.460938 58.40625 315.996094 60.230469 " fill-opacity="1" fill-rule="nonzero"/><path fill="#a5171d" d="M 368.003906 80.21875 C 346.320312 92.257812 346.964844 76.050781 346.964844 76.050781 C 324.011719 116.492188 337.875 62.679688 337.875 62.679688 C 337.792969 62.785156 337.707031 62.890625 337.625 62.996094 C 325.207031 78.375 315.480469 47.644531 315.480469 47.644531 C 315.410156 48.175781 315.34375 48.695312 315.269531 49.199219 C 316.960938 59.050781 317.003906 71.765625 328.765625 73.597656 C 325.878906 79.027344 326.511719 85.25 327.082031 90.90625 C 327.765625 91.980469 328.503906 93.617188 329.183594 94.695312 C 336.050781 100.289062 342.789062 93.324219 346.296875 88.402344 C 347.890625 92.8125 354.128906 92.1875 357.980469 90.65625 C 355.492188 94.335938 354.308594 99.597656 359.128906 101.96875 C 349.839844 106.332031 340.949219 114.652344 342.097656 125.964844 C 335.628906 124.328125 324.058594 123.207031 323.789062 131.800781 C 323.640625 140.8125 326.410156 149.535156 328.046875 158.367188 L 328.96875 158.277344 L 325.109375 132.953125 C 325.996094 126.152344 351.128906 131.195312 351.128906 131.195312 C 336.238281 125.550781 369.96875 99.59375 369.96875 99.59375 C 353.914062 102.203125 368.003906 80.21875 368.003906 80.21875 " fill-opacity="1" fill-rule="nonzero"/></svg>